<svg width="56" height="56" viewBox="0 0 56 56" fill="none" xmlns="http://www.w3.org/2000/svg">
<circle cx="28" cy="28" r="28" fill="white"/>
<g clip-path="url(#clip0_14_142800)">
<path d="M33 25V23C33 22.4696 32.7893 21.9609 32.4142 21.5858C32.0391 21.2107 31.5304 21 31 21H21C20.4696 21 19.9609 21.2107 19.5858 21.5858C19.2107 21.9609 19 22.4696 19 23V29C19 29.5304 19.2107 30.0391 19.5858 30.4142C19.9609 30.7893 20.4696 31 21 31H23M25 35H35C35.5304 35 36.0391 34.7893 36.4142 34.4142C36.7893 34.0391 37 33.5304 37 33V27C37 26.4696 36.7893 25.9609 36.4142 25.5858C36.0391 25.2107 35.5304 25 35 25H25C24.4696 25 23.9609 25.2107 23.5858 25.5858C23.2107 25.9609 23 26.4696 23 27V33C23 33.5304 23.2107 34.0391 23.5858 34.4142C23.9609 34.7893 24.4696 35 25 35ZM32 30C32 30.5304 31.7893 31.0391 31.4142 31.4142C31.0391 31.7893 30.5304 32 30 32C29.4696 32 28.9609 31.7893 28.5858 31.4142C28.2107 31.0391 28 30.5304 28 30C28 29.4696 28.2107 28.9609 28.5858 28.5858C28.9609 28.2107 29.4696 28 30 28C30.5304 28 31.0391 28.2107 31.4142 28.5858C31.7893 28.9609 32 29.4696 32 30Z" stroke="#FF6E01" stroke-width="2" stroke-linecap="round" stroke-linejoin="round"/>
</g>
<defs>
<clipPath id="clip0_14_142800">
<rect width="32" height="32" fill="white" transform="translate(12 12)"/>
</clipPath>
</defs>
</svg>
