<svg width="56" height="56" viewBox="0 0 56 56" fill="none" xmlns="http://www.w3.org/2000/svg">
<circle cx="28" cy="28" r="28" fill="white"/>
<g clip-path="url(#clip0_37_145223)">
<path d="M25 19V21M31 19V21M25 35V37M31 35V37M21 25H19M21 31H19M37 25H35M37 31H35M23 35H33C33.5304 35 34.0391 34.7893 34.4142 34.4142C34.7893 34.0391 35 33.5304 35 33V23C35 22.4696 34.7893 21.9609 34.4142 21.5858C34.0391 21.2107 33.5304 21 33 21H23C22.4696 21 21.9609 21.2107 21.5858 21.5858C21.2107 21.9609 21 22.4696 21 23V33C21 33.5304 21.2107 34.0391 21.5858 34.4142C21.9609 34.7893 22.4696 35 23 35ZM25 25H31V31H25V25Z" stroke="#FF6E01" stroke-width="2" stroke-linecap="round" stroke-linejoin="round"/>
</g>
<defs>
<clipPath id="clip0_37_145223">
<rect width="32" height="32" fill="white" transform="translate(12 12)"/>
</clipPath>
</defs>
</svg>
