<svg width="56" height="56" viewBox="0 0 56 56" fill="none" xmlns="http://www.w3.org/2000/svg">
<circle cx="28" cy="28" r="28" fill="white"/>
<g clip-path="url(#clip0_37_145228)">
<path d="M26.1366 33.2759H30.8096M28.4736 19.2759V20.2759M34.8376 21.9119L34.1306 22.6189M37.4736 28.2759H36.4736M20.4736 28.2759H19.4736M22.8166 22.6189L22.1096 21.9119M24.9376 31.8119C24.2385 31.1126 23.7624 30.2216 23.5696 29.2518C23.3768 28.2819 23.4759 27.2766 23.8544 26.3631C24.2328 25.4495 24.8737 24.6687 25.6959 24.1194C26.5181 23.57 27.4848 23.2768 28.4736 23.2768C29.4625 23.2768 30.4291 23.57 31.2513 24.1194C32.0736 24.6687 32.7144 25.4495 33.0929 26.3631C33.4714 27.2766 33.5705 28.2819 33.3777 29.2518C33.1848 30.2216 32.7088 31.1126 32.0096 31.8119L31.4616 32.3589C31.1483 32.6722 30.8998 33.0442 30.7303 33.4536C30.5608 33.863 30.4736 34.3018 30.4736 34.7449V35.2759C30.4736 35.8063 30.2629 36.315 29.8878 36.6901C29.5128 37.0652 29.0041 37.2759 28.4736 37.2759C27.9432 37.2759 27.4345 37.0652 27.0594 36.6901C26.6843 36.315 26.4736 35.8063 26.4736 35.2759V34.7449C26.4736 33.8499 26.1176 32.9909 25.4856 32.3589L24.9376 31.8119Z" stroke="#FF6E01" stroke-width="2" stroke-linecap="round" stroke-linejoin="round"/>
</g>
<defs>
<clipPath id="clip0_37_145228">
<rect width="32" height="32" fill="white" transform="translate(12 12)"/>
</clipPath>
</defs>
</svg>
